<svg width="38" height="38" viewBox="0 0 38 38" fill="none" xmlns="http://www.w3.org/2000/svg">
<path d="M0 37.9931V0H38V37.9931H0ZM12.5879 25.4378H0.25347V37.7722H12.5879V25.4378ZM25.1878 25.1689V12.8345H12.8533V25.1689H25.1878ZM25.1878 12.5639V0.229493H12.8533V12.5639H25.1878ZM12.8516 37.7277H25.186V25.4344H12.8516V37.7277ZM0.244907 25.1638H12.581V12.8294H0.244907V25.1638ZM37.7517 37.7328V25.4395H25.4584V37.7328H37.7517ZM0.251758 0.263746V12.5571H12.5862V0.263746H0.251758ZM37.7568 12.8328H25.4635V25.1672H37.7568V12.8328ZM37.7568 0.227781H25.4635V12.5622H37.7568V0.227781V0.227781Z" fill="black"/>
<path d="M5.76988 29.5447L5.82982 30.0362C6.09871 29.8769 6.36245 29.68 6.65703 29.5515C7.04751 29.382 7.46368 29.4676 7.86615 29.5413C7.90554 29.5481 7.95692 29.6714 7.94835 29.7348C7.91753 29.9934 7.86615 30.2486 7.82504 30.4798C7.47909 30.4627 7.15026 30.4438 6.82144 30.4335C6.43952 30.4216 6.16892 30.6271 5.95313 30.9114C5.88976 30.9953 5.86407 31.1237 5.86236 31.2333C5.85551 31.9783 5.85894 32.7251 5.85894 33.4701V33.7047H4.8913V29.5447H5.76645H5.76988Z" fill="black"/>
<path d="M17.2891 21.0723H18.5393V18.4897H17.2942V17.6761H19.5275V21.0689H20.7572V21.8361H17.2891V21.0723V21.0723Z" fill="black"/>
<path d="M19.0377 17.1298C18.6934 17.1298 18.4725 16.9294 18.4708 16.6177C18.4708 16.318 18.7157 16.1005 19.0531 16.1039C19.3751 16.1073 19.5943 16.294 19.5789 16.6503C19.5652 16.9739 19.4008 17.1281 19.0377 17.1281V17.1298Z" fill="black"/>
<path d="M16.9825 4.32098C17.3216 4.32098 17.6162 4.32954 17.909 4.31755C18.0375 4.31241 18.106 4.36379 18.1694 4.45799C18.428 4.83991 18.6883 5.22182 18.9503 5.60374C18.9657 5.62601 18.9897 5.64142 19.0137 5.6654C19.3083 5.25094 19.6011 4.83819 19.8957 4.42887C19.9265 4.38606 19.9796 4.32783 20.0241 4.32611C20.3564 4.31755 20.6887 4.32098 21.0517 4.32098C20.7452 4.74914 20.4574 5.14989 20.1697 5.55236C20.0019 5.78699 19.8272 6.01649 19.6748 6.26139C19.6388 6.31791 19.6474 6.44293 19.6868 6.49945C20.1475 7.15882 20.6184 7.81133 21.086 8.46556C21.0877 8.46898 21.0826 8.47755 21.074 8.50666C20.7503 8.50666 20.4181 8.5118 20.0875 8.50152C20.0378 8.50152 19.9813 8.42959 19.9454 8.37821C19.6371 7.94834 19.334 7.51504 19.0188 7.06976C18.7106 7.50648 18.4108 7.93978 18.0991 8.36451C18.0495 8.43302 17.9467 8.49639 17.8645 8.50152C17.5665 8.51694 17.2651 8.50837 16.9157 8.50837C17.1264 8.2138 17.3148 7.95006 17.5049 7.68631C17.7943 7.28384 18.0872 6.88308 18.3749 6.4789C18.4348 6.39498 18.4245 6.32648 18.3526 6.23057C17.8953 5.61059 17.4535 4.98205 16.9808 4.32269L16.9825 4.32098Z" fill="black"/>
<path d="M18.5342 30.6785H17.2908V29.9164H19.5326V33.2629H20.752V34.0764H17.2942V33.2783H18.5342V30.6802V30.6785Z" fill="black"/>
<path d="M19.0462 29.3238C18.6695 29.3238 18.4708 29.1474 18.4691 28.8134C18.4674 28.5154 18.714 28.2859 19.0462 28.3013C19.3665 28.3167 19.5909 28.4777 19.5772 28.8391C19.5635 29.1696 19.4059 29.3238 19.0462 29.3238Z" fill="black"/>
<path d="M4.63611 21.8772V21.0825H5.97197V16.7667H4.64638V15.9532H6.91734V21.0671H8.18983V21.8772H4.63611Z" fill="black"/>
<path d="M29.7622 32.3329H30.6716C30.8737 32.9631 31.7026 33.2543 32.2781 32.8912C32.4151 32.8056 32.5196 32.6823 32.5076 32.511C32.4956 32.3466 32.4014 32.2147 32.2404 32.165C31.9407 32.0726 31.6393 31.9921 31.3361 31.9116C30.9594 31.8105 30.5809 31.7043 30.2743 31.4543C29.7023 30.9885 29.8102 30.0688 30.4952 29.7006C31.3104 29.2621 32.1376 29.2793 32.922 29.7828C33.256 29.9968 33.4256 30.3291 33.4101 30.7607C33.1156 30.7607 32.8364 30.7641 32.5572 30.7573C32.5179 30.7573 32.4562 30.7076 32.4459 30.6699C32.3038 30.1116 31.5571 30.0482 31.1597 30.2418C30.9953 30.3223 30.8617 30.4182 30.8652 30.6271C30.8669 30.848 30.9474 30.9868 31.1649 31.045C31.5571 31.1512 31.9595 31.2265 32.35 31.3413C32.7114 31.4475 33.0796 31.581 33.2868 31.9236C33.6122 32.4613 33.4632 33.0779 32.9272 33.4255C32.4168 33.7561 31.8499 33.804 31.2591 33.7287C30.8018 33.6705 30.4045 33.506 30.0893 33.1635C29.8753 32.9306 29.7862 32.6514 29.7622 32.3329V32.3329Z" fill="black"/>
<path d="M8.32512 6.74095H5.50783C5.47872 7.10574 5.81953 7.59727 6.18775 7.724C6.73237 7.91411 7.22218 7.80621 7.63664 7.40717C7.7531 7.29584 7.82332 7.30783 7.91752 7.41744C7.99801 7.50992 8.08364 7.60241 8.17955 7.67776C8.29772 7.77196 8.26861 7.84218 8.18126 7.93808C7.89183 8.26177 7.52361 8.45187 7.10915 8.53579C6.48061 8.66424 5.87434 8.5906 5.33143 8.21724C4.79709 7.84731 4.54704 7.31811 4.51108 6.67929C4.48539 6.21517 4.53848 5.76646 4.73886 5.3383C5.10023 4.56419 5.97367 4.1326 6.82657 4.26619C7.60239 4.38779 8.12988 4.94953 8.28744 5.70652C8.30286 5.77845 8.32512 5.85038 8.32684 5.92231C8.33197 6.18777 8.32855 6.45323 8.32855 6.73924L8.32512 6.74095ZM7.3729 5.99595C7.39687 5.45476 7.08004 5.07969 6.57309 5.02317C6.09527 4.97008 5.61573 5.31604 5.5164 5.99595H7.3729Z" fill="black"/>
<path d="M30.6579 21.4525V21.8823H29.7742V15.9532H30.7401V17.9929C30.8566 17.9124 30.9422 17.8371 31.0398 17.7891C31.8071 17.4004 32.922 17.6281 33.2594 18.63C33.5249 19.4213 33.53 20.2022 33.2423 20.9798C33.0436 21.5158 32.4956 21.9389 31.903 21.9406C31.4355 21.9406 31.021 21.8584 30.6545 21.4525H30.6579ZM30.7436 19.7638C30.7436 19.9214 30.7384 20.0789 30.7436 20.2348C30.7504 20.3889 30.7281 20.5602 30.7881 20.6921C30.9542 21.0654 31.2796 21.1767 31.6701 21.1545C31.9441 21.1391 32.237 20.913 32.3466 20.627C32.5333 20.1337 32.5384 19.6302 32.4168 19.1267C32.2969 18.6335 31.9612 18.3834 31.4885 18.4023C31.0433 18.4194 30.7418 18.7277 30.7418 19.1695V19.7638H30.7436Z" fill="black"/>
<path d="M29.1439 4.77143H31.5725C32.1462 4.77143 32.7217 4.7543 33.2954 4.77828C33.5574 4.78856 33.8332 4.83993 34.0712 4.94612C34.4223 5.10026 34.6124 5.40168 34.6038 5.80244C34.6004 5.96 34.6193 6.12099 34.5884 6.2717C34.484 6.79577 34.0489 7.03554 33.5831 7.06979C33.5626 7.06979 33.542 7.06979 33.5215 7.06979C33.2166 7.05951 32.946 7.06465 32.6925 7.3284C32.4922 7.53563 32.1702 7.6264 31.8979 7.77026H33.3382C33.2389 8.06654 33.1789 8.34057 33.0556 8.58376C32.9511 8.79099 32.7302 8.87662 32.4904 8.87662C31.629 8.87662 30.7675 8.88176 29.9061 8.87491C29.4128 8.86977 29.2262 8.53238 29.1439 8.04599C29.1302 7.96036 29.1268 7.87473 29.1165 7.77197H30.4849C30.228 7.6264 29.9626 7.49281 29.7125 7.33182C29.3649 7.10747 29.1525 6.78549 29.1439 6.36418C29.132 5.84183 29.1405 5.31947 29.1405 4.77314L29.1439 4.77143ZM31.1426 7.76512V4.91015H29.2262C29.2262 5.34345 29.2125 5.76133 29.2296 6.1775C29.2484 6.63307 29.4556 6.98929 29.8359 7.25989C30.2298 7.53905 30.6733 7.66407 31.1426 7.76683V7.76512ZM29.2553 7.8987C29.2758 8.01688 29.2792 8.12135 29.3118 8.21212C29.4043 8.4673 29.5361 8.72248 29.8307 8.74475C30.264 8.77729 30.7007 8.75331 31.1426 8.75331V7.89699H29.2536L29.2553 7.8987ZM33.2971 6.36076C33.7424 6.39843 33.9684 6.2854 33.989 6.03022C34.025 5.59521 33.8948 5.47704 33.2971 5.41024V6.36076Z" fill="black"/>
<path d="M31.3687 4.35011V3.14441H32.0041V4.35011H31.3687Z" fill="black"/>
<path d="M30.9765 4.3501H30.336V3.14612H30.9765V4.3501ZM30.8549 4.22851V3.25915H30.4678V4.22851H30.8549Z" fill="black"/>
</svg>
