<svg width="43" height="44" viewBox="0 0 43 44" fill="none" xmlns="http://www.w3.org/2000/svg">
<path d="M15.6116 13.1901C17 13.19 22.1031 13.2122 22.5 13.2122C28.1333 13.1901 28.0649 13.2121 33.767 13.2121C37.6365 13.3446 40.5371 14.6579 41.6065 18.7853C42.4112 21.8865 42.0805 24.9434 39.9749 27.5148C38.7953 28.9606 37.0425 29.4903 35.2566 29.8766C33.4817 30.2518 31.6958 30.1193 29.9099 30.1304C29.4469 30.1304 29.0941 30.2297 28.7634 30.5829C25.875 33.7171 22.0717 35.0525 18.0589 35.9684C17.9928 35.9795 17.9377 36.0567 17.7282 36.2223C21.0465 36.2223 24.2214 36.2223 27.4074 36.2223C28.5098 36.2223 29.6012 36.2443 30.7036 36.2223C31.2328 36.2112 31.5525 36.3106 31.4643 36.9286C31.1335 39.2461 30.7036 41.5306 28.6862 43.0757C28.1129 43.5171 28 43.5 28 43.5C25.6931 43.6495 21.3313 43.6606 17.8587 43.6495C17.6162 43.6495 16.6124 43.6495 15.6226 43.6495C15.3691 43.3295 15.2478 42.9543 15.2368 42.557C15.1927 40.8905 15.1927 39.2241 15.2368 37.5576C15.2368 37.1493 15.3691 36.7851 15.6226 36.4651C15.6336 36.3988 15.6336 36.3326 15.6226 36.2554C15.2037 35.7367 15.2147 35.1076 15.2037 34.5007C15.2037 27.9894 15.2037 21.4781 15.2037 14.9669C15.2037 14.3488 15.1927 13.7308 15.6226 13.2121L15.6116 13.1901Z" fill="#F0F1F4"/>
<path d="M15.6116 13.1901C15.6116 20.8711 15.6116 28.5522 15.6116 36.2333C13.3406 35.7146 11.0366 35.2401 8.88688 34.3351C5.11663 32.7569 1.80938 30.638 0.464441 26.4443C0.188838 25.5835 0.0345117 24.7006 0.0455358 23.7846C0.0786081 20.6173 0.0896323 17.45 0.0455358 14.2716C0.0345117 13.4218 0.243971 13.179 1.11488 13.179C5.95446 13.2121 10.794 13.179 15.6226 13.179L15.6116 13.1901Z" fill="white"/>
<path d="M15.6116 36.443C15.6116 38.8378 15.6116 41.2437 15.6116 43.6385C12.2382 43.6385 8.8538 43.5502 5.48042 43.6385C3.45198 43.6826 2.25035 42.6673 1.3133 41.0671C0.651857 39.9525 0.420362 38.6943 0.0675903 37.4804C-0.152892 36.7299 0.166791 36.443 1.01565 36.454C5.87728 36.4871 10.75 36.454 15.6116 36.454V36.443Z" fill="white"/>
<path d="M21.6969 4.4385C21.6969 5.63039 21.6638 6.81124 21.7079 8.00313C21.73 8.59908 21.5205 8.75359 20.9583 8.73151C19.9441 8.68737 18.9409 8.68737 17.9267 8.73151C17.3314 8.75359 17.188 8.53286 17.1991 7.98106C17.2211 5.56417 17.2321 3.14728 17.1991 0.730387C17.1991 0.134441 17.3865 -0.0200633 17.9487 0.00200876C18.9629 0.0461529 19.9661 0.0461529 20.9803 0.00200876C21.5756 -0.0200633 21.73 0.200658 21.7079 0.75246C21.6749 1.97746 21.6969 3.2135 21.6969 4.44953V4.4385Z" fill="#F0F1F4"/>
<path d="M9.54831 4.36122C9.54831 3.21347 9.57036 2.07676 9.54831 0.929014C9.53728 0.41032 9.71367 0.200635 10.2208 0.266851C10.2649 0.266851 10.309 0.266851 10.3531 0.266851C11.3563 0.288923 12.6571 -0.0642305 13.2855 0.432391C13.958 0.962121 13.4839 2.31955 13.506 3.3128C13.5501 4.75852 13.4839 6.21528 13.528 7.67203C13.5501 8.31212 13.3516 8.52181 12.7122 8.47766C11.709 8.41145 10.4082 8.79771 9.77982 8.30109C9.10735 7.77136 9.62548 6.41392 9.54831 5.42068C9.52626 5.06753 9.54831 4.71437 9.54831 4.36122V4.36122Z" fill="white"/>
</svg>
